<svg width="26" height="26" viewBox="0 0 26 26" fill="none" xmlns="http://www.w3.org/2000/svg">
<path d="M24.7625 8.8C24.7625 8.8 24.7625 8.8 24.7625 8.7375C23.8818 6.33278 22.2836 4.25661 20.1844 2.78983C18.0851 1.32306 15.5859 0.536469 13.025 0.536469C10.4641 0.536469 7.96492 1.32306 5.86564 2.78983C3.76636 4.25661 2.16825 6.33278 1.2875 8.7375C1.2875 8.7375 1.2875 8.7375 1.2875 8.8C0.303906 11.5136 0.303906 14.4864 1.2875 17.2C1.2875 17.2 1.2875 17.2 1.2875 17.2625C2.16825 19.6672 3.76636 21.7434 5.86564 23.2102C7.96492 24.677 10.4641 25.4635 13.025 25.4635C15.5859 25.4635 18.0851 24.677 20.1844 23.2102C22.2836 21.7434 23.8818 19.6672 24.7625 17.2625C24.7625 17.2625 24.7625 17.2625 24.7625 17.2C25.7461 14.4864 25.7461 11.5136 24.7625 8.8ZM3.325 15.5C2.89154 13.8615 2.89154 12.1385 3.325 10.5H5.65C5.45004 12.1607 5.45004 13.8393 5.65 15.5H3.325ZM4.35 18H6.1C6.3934 19.1148 6.81277 20.1926 7.35 21.2125C6.12412 20.3774 5.09937 19.2801 4.35 18ZM6.1 8H4.35C5.08859 6.72386 6.10024 5.62684 7.3125 4.7875C6.78819 5.80906 6.38143 6.88678 6.1 8ZM11.75 22.625C10.2147 21.4984 9.13644 19.8565 8.7125 18H11.75V22.625ZM11.75 15.5H8.175C7.94174 13.8415 7.94174 12.1585 8.175 10.5H11.75V15.5ZM11.75 8H8.7125C9.13644 6.14346 10.2147 4.50165 11.75 3.375V8ZM21.65 8H19.9C19.6066 6.8852 19.1872 5.80743 18.65 4.7875C19.8759 5.62259 20.9006 6.71993 21.65 8ZM14.25 3.375C15.7853 4.50165 16.8636 6.14346 17.2875 8H14.25V3.375ZM14.25 22.625V18H17.2875C16.8636 19.8565 15.7853 21.4984 14.25 22.625ZM17.825 15.5H14.25V10.5H17.825C18.0583 12.1585 18.0583 13.8415 17.825 15.5ZM18.6875 21.2125C19.2247 20.1926 19.6441 19.1148 19.9375 18H21.6875C20.9381 19.2801 19.9134 20.3774 18.6875 21.2125ZM22.675 15.5H20.35C20.4517 14.6706 20.5018 13.8356 20.5 13C20.5014 12.1644 20.4513 11.3295 20.35 10.5H22.675C23.1085 12.1385 23.1085 13.8615 22.675 15.5Z" fill="#F1A900"/>
</svg>
