<svg width="20" height="20" viewBox="0 0 20 20" fill="none" xmlns="http://www.w3.org/2000/svg">
<path d="M9.99433 3.44539e-08C8.01652 3.44539e-08 6.08312 0.58649 4.43863 1.6853C2.79413 2.78412 1.51241 4.3459 0.755533 6.17317C-0.00134343 8.00043 -0.199377 10.0111 0.186475 11.9509C0.572328 13.8907 1.52474 15.6725 2.92326 17.0711C4.32179 18.4696 6.10362 19.422 8.04343 19.8079C9.98324 20.1937 11.9939 19.9957 13.8212 19.2388C15.6484 18.4819 17.2102 17.2002 18.309 15.5557C19.4078 13.9112 19.9943 11.9778 19.9943 10C19.9944 8.68675 19.7359 7.38634 19.2333 6.17304C18.7308 4.95973 17.9942 3.8573 17.0656 2.92869C16.137 2.00008 15.0346 1.26349 13.8213 0.760983C12.608 0.258474 11.3076 -0.000108979 9.99433 3.44539e-08ZM13.1738 15.1525C13.1364 15.2458 13.0795 15.33 13.0068 15.3996C12.9342 15.4691 12.8475 15.5223 12.7526 15.5556C12.6577 15.5889 12.5568 15.6015 12.4566 15.5926C12.3565 15.5837 12.2594 15.5535 12.1718 15.504L9.45717 13.3946L7.71485 15.002C7.67442 15.0319 7.62713 15.0511 7.57733 15.0579C7.52752 15.0647 7.47681 15.0589 7.42985 15.0409L7.76385 12.0525L7.77454 12.061L7.78137 12.002C7.78137 12.002 12.6664 7.55445 12.8654 7.36496C13.0668 7.17596 13.0004 7.13496 13.0004 7.13496C13.0118 6.90443 12.6388 7.13496 12.6388 7.13496L6.16633 11.299L3.47084 10.381C3.47084 10.381 3.05684 10.2325 3.01784 9.906C2.97684 9.582 3.48433 9.406 3.48433 9.406L14.2013 5.14849C14.2013 5.14849 15.0823 4.75597 15.0823 5.406L13.1738 15.1525Z" fill="white"/>
</svg>
